<svg id="Calque_1" data-name="Calque 1" xmlns="http://www.w3.org/2000/svg" viewBox="0 0 32 24"><defs><style>.cls-1{fill:#0052b4;}.cls-2{fill:#ffda44;}</style></defs><path class="cls-1" d="M0,0H32V24H0Z"/><path class="cls-2" d="M16,2.26036l.51782,1.59419h1.67709l-1.35709.98618.51782,1.59418L16,5.44873l-1.35564.98618.51782-1.59418-1.35854-.98618h1.67709ZM9.11273,5.11273l1.49382.76218L11.792,4.68945l-.26182,1.65528,1.49382.76072-1.65527.26182L11.10691,9.024l-.76218-1.49382L8.68945,7.792,9.87491,6.60655ZM6.26036,12l1.59419-.51782V9.80364l.98618,1.35709,1.59418-.51782L9.44873,12l.98618,1.35564-1.59418-.51782-.98618,1.35709V12.51782Zm2.85237,6.88727.76218-1.49382L8.68945,16.208l1.65528.26182.76072-1.49382.26182,1.65673,1.65673.26182-1.49382.76072.26182,1.65528-1.18545-1.18546ZM16,21.73964l-.51782-1.59418H13.80364l1.35709-.98619-.51782-1.59418,1.35563.98619,1.35564-.98619-.51782,1.59419,1.35709.98618H16.51636Zm6.88727-2.85237-1.49382-.76218L20.208,19.31054l.26182-1.65527L18.976,16.89454l1.65673-.26181.26182-1.65673.76072,1.49382,1.65528-.26182-1.18546,1.18545ZM25.73964,12l-1.59564.51782v1.67854l-.98473-1.35709-1.59418.51782.98618-1.35563-.98618-1.35564,1.59418.51782L24.144,9.80655v1.67709L25.74109,12ZM22.88727,5.11273l-.76218,1.49382L23.31054,7.792l-1.65527-.26182L20.89454,9.024l-.26181-1.65527L18.976,7.10691l1.49382-.76218L20.208,4.68945l1.18545,1.18546Z"/></svg>