<svg id="Calque_1" data-name="Calque 1" xmlns="http://www.w3.org/2000/svg" viewBox="0 0 32 24"><defs><style>.cls-1{fill:#4e84f2;}.cls-2{fill:#fff;fill-rule:evenodd;}</style></defs><rect class="cls-1" width="32" height="24"/><path class="cls-2" d="M15.99913,4.72727A7.27273,7.27273,0,0,0,15.998,19.27273H16a7.27273,7.27273,0,0,0,.002-14.54546ZM13.38858,10.2384a13.4617,13.4617,0,0,0-.0867,2.65117c.02481.37708.06522.74689.12026,1.10567a18.85354,18.85354,0,0,1,5.15575,0q.01767-.116.03345-.23366a13.4655,13.4655,0,0,0,.08684-2.65117c-.02487-.37708-.06531-.7469-.12029-1.10569A18.45234,18.45234,0,0,1,16,10.18182a18.45435,18.45435,0,0,1-2.57786-.17706Q13.40435,10.1207,13.38858,10.2384Zm-.8625-.38783q-.02054.13271-.03853.26712a14.36986,14.36986,0,0,0-.0928,2.83159c.02684.40771.07085.80913.13133,1.20015q-.08175.01666-.16246.03413a10.056,10.056,0,0,0-1.89027.5891,6.19447,6.19447,0,0,1,0-5.54531,10.05678,10.05678,0,0,0,1.89027.58909Q12.44432,9.83391,12.52608,9.85057ZM13.59479,9.111A17.58054,17.58054,0,0,0,16,9.27273,17.58175,17.58175,0,0,0,18.40524,9.111q-.05956-.25323-.12946-.49523a7.093,7.093,0,0,0-.82371-1.88931,2.97043,2.97043,0,0,0-.81614-.876,6.27342,6.27342,0,0,0-1.27186,0,2.42787,2.42787,0,0,0-.495.44627,5.42278,5.42278,0,0,0-.90525,1.60151A9.4213,9.4213,0,0,0,13.59479,9.111Zm.19485-2.88592a7.15639,7.15639,0,0,0-.67456,1.34756,10.38068,10.38068,0,0,0-.418,1.385q-.071-.01452-.1411-.02971a9.41512,9.41512,0,0,1-1.61075-.48751A6.20072,6.20072,0,0,1,13.78964,6.22508Zm4.42069,0,.00334.00507a7.99011,7.99011,0,0,1,.93557,2.13349q.08377.29026.1536.594.07111-.01455.14109-.02971a9.41,9.41,0,0,0,1.61076-.48752A6.20077,6.20077,0,0,0,18.21033,6.22508Zm1.26356,3.62549c.06051.391.10458.79244.13135,1.20015a14.363,14.363,0,0,1-.0928,2.83159q-.0179.1344-.03855.26712.08182.01666.16247.03413a10.05922,10.05922,0,0,1,1.89033.58911,6.19487,6.19487,0,0,0,0-5.54534,10.05922,10.05922,0,0,1-1.89033.58911Q19.55565,9.83391,19.47389,9.85057ZM18.40524,14.889a17.96594,17.96594,0,0,0-4.81045,0q.05961.25311.12946.49529a7.09361,7.09361,0,0,0,.82368,1.88931,2.97444,2.97444,0,0,0,.81614.87593,6.27825,6.27825,0,0,0,1.27186,0,2.42778,2.42778,0,0,0,.495-.44626,5.42306,5.42306,0,0,0,.90531-1.6016A9.437,9.437,0,0,0,18.40524,14.889Zm-.19491,2.886a7.15958,7.15958,0,0,0,.67462-1.34763,10.39024,10.39024,0,0,0,.41789-1.385q.07111.01461.14109.02967a9.42143,9.42143,0,0,1,1.61076.48756A6.20134,6.20134,0,0,1,18.21033,17.775Zm-4.42069,0-.00331-.00509a7.99262,7.99262,0,0,1-.93551-2.13353q-.0838-.29018-.15373-.594-.071.01461-.1411.02967a9.42741,9.42741,0,0,0-1.61075.48756A6.20135,6.20135,0,0,0,13.78964,17.775Z"/></svg>