<svg id="Calque_1" data-name="Calque 1" xmlns="http://www.w3.org/2000/svg" viewBox="0 0 40 40"><path d="M16.91488,24.39051l-1.55911-2.346a.58865.58865,0,0,1,.81632-.81632L18.34161,22.677a.23576.23576,0,0,0,.36771-.19121l.68395-20.7244a.61082.61082,0,0,1,1.22081,0l.69131,20.73176a.24052.24052,0,0,0,.36771.19121l2.16952-1.4488a.58866.58866,0,0,1,.81633.81633l-1.56647,2.33866a.23284.23284,0,0,0,.14709.36036l2.76521.55158a.58489.58489,0,0,1,0,1.14726l-2.76521.56629a.23284.23284,0,0,0-.14709.36036l1.55911,2.346a.58866.58866,0,0,1-.81632.81633l-1.93418-1.29435a.23811.23811,0,0,0-.36772.20591l.15444,4.5229a9.41712,9.41712,0,0,0,4.72881-16.15738,1.20725,1.20725,0,0,1,.07355-1.79445,10.60941,10.60941,0,0,0,3.50064-11.9066c-.3383-.95606.75014-2.20629,1.57382-1.61795a20.00606,20.00606,0,0,1,7.92793,11.81835.47694.47694,0,0,1-.125.4339l-2.08862,2.08862a.46958.46958,0,0,0,.33094.80162H39.522a.457.457,0,0,1,.46332.44126c.00735.24269.01471.48538.01471.73543a20.56874,20.56874,0,0,1-.353,3.77275.51282.51282,0,0,1-.125.24269l-3.41975,3.41975a.46958.46958,0,0,0,.33095.80161H37.5069a.46351.46351,0,0,1,.41919.66189A20.0121,20.0121,0,0,1,2.08127,27.722a.45831.45831,0,0,1,.41919-.66189H3.56683a.468.468,0,0,0,.331-.80162L.48538,22.83876a.4305.4305,0,0,1-.125-.24269A19.94608,19.94608,0,0,1,0,18.82331c0-.24269.00735-.49273.01471-.73543A.45694.45694,0,0,1,.478,17.64663H2.39015a.468.468,0,0,0,.33094-.80162L.63247,14.749a.47137.47137,0,0,1-.125-.4339A20.04961,20.04961,0,0,1,8.44273,2.49678c.831-.58834,1.91212.65453,1.57382,1.61795a10.60941,10.60941,0,0,0,3.50064,11.9066,1.20724,1.20724,0,0,1,.07354,1.79444,9.41713,9.41713,0,0,0,4.72882,16.15739l.15444-4.52289a.23811.23811,0,0,0-.36772-.20592L16.17209,30.5387a.58865.58865,0,0,1-.81632-.81632l1.55911-2.346a.23284.23284,0,0,0-.14709-.36036l-2.76522-.55158a.58489.58489,0,0,1,0-1.14726l2.76522-.55158a.23285.23285,0,0,0,.14709-.36036Z"/></svg>